<svg width="208" height="37" viewBox="0 0 208 37" fill="none" xmlns="http://www.w3.org/2000/svg">
<path d="M1.64169 30V5.41494H6.31285C8.15673 5.41494 9.49867 5.79908 10.3387 6.56737C11.1889 7.33565 11.6191 8.611 11.6294 10.3934C11.6396 11.049 11.6447 11.638 11.6447 12.1605C11.6447 12.6727 11.6345 13.1746 11.614 13.6663C11.5628 14.6497 11.3579 15.4282 10.9994 16.0019C10.6408 16.5755 10.0774 16.9955 9.30915 17.2619V17.9072C10.0979 18.1736 10.6767 18.5987 11.0455 19.1826C11.4143 19.7562 11.614 20.545 11.6447 21.5489C11.6652 22.1738 11.6755 22.7525 11.6755 23.2852C11.6755 23.8076 11.6652 24.3864 11.6447 25.0215C11.573 26.7937 11.1274 28.069 10.3079 28.8476C9.48842 29.6159 8.15673 30 6.31285 30H1.64169ZM4.96067 27.0498H6.31285C6.9787 27.0498 7.47552 26.8808 7.80332 26.5427C8.14136 26.1944 8.31551 25.672 8.32575 24.9754C8.336 24.4018 8.34112 23.8589 8.34112 23.3467C8.34112 22.8242 8.336 22.2762 8.32575 21.7025C8.31551 20.7396 8.14649 20.0533 7.81869 19.6435C7.50113 19.2338 6.9787 19.0289 6.25139 19.0289H4.96067V27.0498ZM4.96067 16.0787H6.29749C6.96333 16.0787 7.46015 15.8687 7.78795 15.4487C8.126 15.0287 8.30014 14.409 8.31039 13.5895C8.33087 12.9953 8.34112 12.4319 8.34112 11.8993C8.34112 11.3666 8.33087 10.8083 8.31039 10.2244C8.30014 9.59952 8.126 9.13343 7.78795 8.82612C7.46015 8.51881 6.96845 8.36515 6.31285 8.36515H4.96067V16.0787Z" fill="white"/>
<path d="M17.0083 18.5126V25.371C17.0083 26.3493 17.1681 27.0646 17.4877 27.5169C17.9646 28.1708 18.6357 28.4978 19.5009 28.4978C20.3711 28.4978 21.0447 28.1708 21.5216 27.5169C21.8411 27.0794 22.0009 26.3641 22.0009 25.371V18.5126H23.7192V25.8429C23.7192 27.0425 23.3455 28.0307 22.5982 28.8075C21.7575 29.6728 20.7251 30.1054 19.5009 30.1054C18.2768 30.1054 17.2468 29.6728 16.411 28.8075C15.6637 28.0307 15.2901 27.0425 15.2901 25.8429V18.5126H17.0083ZM28.1734 18.5126V29.8989H26.4551V18.5126H28.1734ZM32.6276 18.5126V28.2839H35.9757V29.8989H30.9094V18.5126H32.6276ZM37.6054 29.8989V18.5126H39.9948C41.1403 18.5126 42.0449 18.6257 42.7086 18.8519C43.4215 19.0731 44.068 19.4492 44.6481 19.9802C45.8231 21.0519 46.4106 22.4605 46.4106 24.2058C46.4106 25.956 45.7986 27.3719 44.5744 28.4535C43.9598 28.9943 43.3158 29.3704 42.6423 29.5818C42.013 29.7932 41.1206 29.8989 39.9653 29.8989H37.6054ZM39.3237 28.2839H40.098C40.8699 28.2839 41.5115 28.2028 42.0228 28.0405C42.5341 27.8685 42.9962 27.5956 43.4092 27.222C44.2548 26.4501 44.6776 25.4447 44.6776 24.2058C44.6776 22.957 44.2597 21.9443 43.424 21.1675C42.6718 20.4743 41.5631 20.1277 40.098 20.1277H39.3237V28.2839Z" fill="white"/>
<path d="M56.7585 30V23.8537V23.823L52.7788 5.41494H56.1746L57.4192 11.8685L58.0646 18.9982H58.7714L59.4014 11.8685L60.6614 5.41494H64.0725L60.0775 23.8384V23.8691V30H56.7585Z" fill="white"/>
<path d="M64.2457 24.2552C64.2457 22.6525 64.8332 21.2759 66.0082 20.1255C67.1783 18.9751 68.5844 18.3998 70.2264 18.3998C71.8488 18.3998 73.2402 18.98 74.4004 20.1402C75.5656 21.3005 76.1482 22.6943 76.1482 24.3216C76.1482 25.9588 75.5631 27.3476 74.393 28.4882C73.218 29.6337 71.7997 30.2065 70.1379 30.2065C68.6679 30.2065 67.3479 29.6976 66.1778 28.68C64.8897 27.5541 64.2457 26.0792 64.2457 24.2552ZM65.9787 24.2774C65.9787 25.5359 66.4015 26.5708 67.2471 27.382C68.0878 28.1932 69.0588 28.5988 70.1601 28.5988C71.3547 28.5988 72.3626 28.1859 73.1836 27.3599C74.0046 26.5241 74.4152 25.5064 74.4152 24.3069C74.4152 23.0925 74.0096 22.0748 73.1984 21.2538C72.3921 20.4278 71.3941 20.0149 70.2043 20.0149C69.0195 20.0149 68.019 20.4278 67.2029 21.2538C66.3867 22.0699 65.9787 23.0778 65.9787 24.2774ZM80.0272 18.6137V25.472C80.0272 26.4504 80.187 27.1657 80.5065 27.618C80.9834 28.2719 81.6545 28.5988 82.5198 28.5988C83.39 28.5988 84.0635 28.2719 84.5404 27.618C84.86 27.1805 85.0198 26.4651 85.0198 25.472V18.6137H86.738V25.944C86.738 27.1436 86.3644 28.1318 85.6171 28.9086C84.7764 29.7738 83.744 30.2065 82.5198 30.2065C81.2956 30.2065 80.2656 29.7738 79.4299 28.9086C78.6826 28.1318 78.3089 27.1436 78.3089 25.944V18.6137H80.0272ZM93.3309 25.1476L96.8559 30H94.7542L91.502 25.3393H91.1923V30H89.474V18.6137H91.4872C92.9916 18.6137 94.0782 18.8964 94.7468 19.4618C95.4842 20.0911 95.853 20.9219 95.853 21.9544C95.853 22.7607 95.6219 23.4539 95.1598 24.034C94.6976 24.6141 94.088 24.9853 93.3309 25.1476ZM91.1923 23.8423H91.738C93.3653 23.8423 94.1789 23.2203 94.1789 21.9765C94.1789 20.8113 93.3874 20.2287 91.8043 20.2287H91.1923V23.8423Z" fill="white"/>
<path d="M108.453 30.2612C106.609 30.2612 105.278 29.872 104.458 29.0934C103.649 28.3047 103.229 26.9986 103.198 25.1752C103.168 23.9459 103.147 22.7064 103.137 21.4567C103.127 20.207 103.121 18.9572 103.121 17.7075C103.121 16.4475 103.127 15.1977 103.137 13.9582C103.147 12.7085 103.168 11.4639 103.198 10.2244C103.229 8.41125 103.649 7.11541 104.458 6.33688C105.278 5.54811 106.609 5.15373 108.453 5.15373C110.297 5.15373 111.619 5.54811 112.418 6.33688C113.227 7.11541 113.652 8.41125 113.693 10.2244C113.734 11.4741 113.76 12.7239 113.77 13.9736C113.79 15.2234 113.801 16.4731 113.801 17.7228C113.801 18.9726 113.79 20.2223 113.77 21.4721C113.76 22.7116 113.734 23.9459 113.693 25.1752C113.652 26.9986 113.227 28.3047 112.418 29.0934C111.619 29.872 110.297 30.2612 108.453 30.2612ZM108.453 27.5108C109.109 27.5108 109.59 27.3725 109.898 27.0959C110.205 26.8091 110.364 26.3635 110.374 25.7591C110.425 24.4888 110.456 23.1725 110.466 21.8101C110.487 20.4374 110.497 19.0545 110.497 17.6614C110.497 16.2682 110.487 14.8956 110.466 13.5434C110.446 12.1912 110.415 10.8902 110.374 9.6405C110.364 9.03612 110.2 8.59563 109.882 8.31905C109.575 8.03223 109.099 7.88881 108.453 7.88881C107.808 7.88881 107.326 8.03223 107.009 8.31905C106.702 8.59563 106.538 9.03612 106.517 9.6405C106.476 10.8902 106.44 12.1912 106.41 13.5434C106.389 14.8956 106.379 16.2682 106.379 17.6614C106.389 19.0545 106.405 20.4374 106.425 21.8101C106.446 23.1725 106.476 24.4888 106.517 25.7591C106.538 26.3635 106.702 26.8091 107.009 27.0959C107.326 27.3725 107.808 27.5108 108.453 27.5108Z" fill="white"/>
<path d="M117.925 18.6137L120.889 26.2242L123.987 18.0606L126.951 26.2242L130.1 18.6137H131.966L126.877 30.7227L123.95 22.655L120.897 30.7301L116.059 18.6137H117.925ZM133.382 30V17.8394L141.686 26.5266V18.6137H143.404V30.6932L135.1 22.0281V30H133.382Z" fill="white"/>
<path d="M150.642 30V5.41494H155.313C157.157 5.41494 158.499 5.79908 159.339 6.56737C160.189 7.33565 160.619 8.611 160.629 10.3934C160.64 11.049 160.645 11.638 160.645 12.1605C160.645 12.6727 160.634 13.1746 160.614 13.6663C160.563 14.6497 160.358 15.4282 159.999 16.0019C159.641 16.5755 159.077 16.9955 158.309 17.2619V17.9072C159.098 18.1736 159.677 18.5987 160.045 19.1826C160.414 19.7562 160.614 20.545 160.645 21.5489C160.665 22.1738 160.675 22.7525 160.675 23.2852C160.675 23.8076 160.665 24.3864 160.645 25.0215C160.573 26.7937 160.127 28.069 159.308 28.8476C158.488 29.6159 157.157 30 155.313 30H150.642ZM153.961 27.0498H155.313C155.979 27.0498 156.476 26.8808 156.803 26.5427C157.141 26.1944 157.316 25.672 157.326 24.9754C157.336 24.4018 157.341 23.8589 157.341 23.3467C157.341 22.8242 157.336 22.2762 157.326 21.7025C157.316 20.7396 157.146 20.0533 156.819 19.6435C156.501 19.2338 155.979 19.0289 155.251 19.0289H153.961V27.0498ZM153.961 16.0787H155.297C155.963 16.0787 156.46 15.8687 156.788 15.4487C157.126 15.0287 157.3 14.409 157.31 13.5895C157.331 12.9953 157.341 12.4319 157.341 11.8993C157.341 11.3666 157.331 10.8083 157.31 10.2244C157.3 9.59952 157.126 9.13343 156.788 8.82612C156.46 8.51881 155.968 8.36515 155.313 8.36515H153.961V16.0787Z" fill="white"/>
<path d="M168.147 25.1476L171.672 30H169.57L166.318 25.3393H166.008V30H164.29V18.6137H166.303C167.808 18.6137 168.894 18.8964 169.563 19.4618C170.3 20.0911 170.669 20.9219 170.669 21.9544C170.669 22.7607 170.438 23.4539 169.976 24.034C169.514 24.6141 168.904 24.9853 168.147 25.1476ZM166.008 23.8423H166.554C168.181 23.8423 168.995 23.2203 168.995 21.9765C168.995 20.8113 168.203 20.2287 166.62 20.2287H166.008V23.8423ZM180.079 27.2345H175.204L173.936 30H172.085L177.719 17.8984L183.154 30H181.274L180.079 27.2345ZM179.378 25.6195L177.69 21.7479L175.92 25.6195H179.378ZM184.585 30V17.8394L192.889 26.5266V18.6137H194.607V30.6932L186.303 22.0281V30H184.585ZM197.343 30V18.6137H199.732C200.878 18.6137 201.782 18.7268 202.446 18.9529C203.159 19.1742 203.805 19.5503 204.385 20.0812C205.56 21.153 206.148 22.5615 206.148 24.3069C206.148 26.0571 205.536 27.473 204.312 28.5546C203.697 29.0954 203.053 29.4715 202.38 29.6829C201.75 29.8943 200.858 30 199.703 30H197.343ZM199.061 28.385H199.835C200.607 28.385 201.249 28.3039 201.76 28.1416C202.271 27.9695 202.734 27.6967 203.147 27.323C203.992 26.5512 204.415 25.5458 204.415 24.3069C204.415 23.0581 203.997 22.0453 203.161 21.2685C202.409 20.5753 201.3 20.2287 199.835 20.2287H199.061V28.385Z" fill="white"/>
</svg>
