<svg width="115" height="138" viewBox="0 0 115 138" fill="none" xmlns="http://www.w3.org/2000/svg">
<g filter="url(#filter0_d_55_24998)">
<path d="M4.83505 33V9.33886H8.39035C9.97389 9.33886 11.2356 9.46145 12.1755 9.70665C13.1256 9.95184 13.9276 10.3656 14.5815 10.9479C15.2455 11.5507 15.7717 12.3016 16.1599 13.2006C16.5583 14.1099 16.7576 15.0294 16.7576 15.9591C16.7576 17.655 16.1088 19.0904 14.8113 20.2653C16.068 20.6944 17.0589 21.4453 17.7843 22.518C18.5199 23.5805 18.8877 24.8167 18.8877 26.2265C18.8877 28.0757 18.2338 29.6388 16.9261 30.9159C16.1395 31.7025 15.2558 32.2491 14.275 32.5556C13.2023 32.8519 11.8588 33 10.2446 33H4.83505ZM8.40567 19.499H9.52437C10.8525 19.499 11.8231 19.2079 12.436 18.6255C13.0592 18.033 13.3708 17.1646 13.3708 16.0204C13.3708 14.9068 13.0541 14.0639 12.4207 13.4918C11.7873 12.9095 10.8678 12.6183 9.66229 12.6183H8.40567V19.499ZM8.40567 29.6439H10.6124C12.2266 29.6439 13.4117 29.3272 14.1677 28.6938C14.9646 28.0093 15.363 27.1409 15.363 26.0886C15.363 25.067 14.9799 24.2088 14.2137 23.5141C13.4679 22.8296 12.1347 22.4873 10.214 22.4873H8.40567V29.6439ZM26.9791 9.33886V23.5907C26.9791 25.6238 27.3111 27.1103 27.9752 28.0502C28.9661 29.4089 30.3607 30.0883 32.1588 30.0883C33.9671 30.0883 35.3667 29.4089 36.3577 28.0502C37.0218 27.1409 37.3538 25.6544 37.3538 23.5907V9.33886H40.9244V24.5715C40.9244 27.0643 40.148 29.1178 38.5951 30.732C36.8481 32.53 34.7026 33.4291 32.1588 33.4291C29.6149 33.4291 27.4746 32.53 25.7378 30.732C24.1849 29.1178 23.4084 27.0643 23.4084 24.5715V9.33886H26.9791ZM50.1805 9.33886V33H46.6098V9.33886H50.1805ZM59.4365 9.33886V29.6439H66.3939V33H55.8659V9.33886H59.4365ZM69.7806 33V9.33886H74.7458C77.1262 9.33886 79.006 9.57383 80.3852 10.0438C81.8666 10.5035 83.21 11.2851 84.4156 12.3884C86.8573 14.6156 88.0781 17.5426 88.0781 21.1694C88.0781 24.8065 86.8062 27.7488 84.2623 29.9964C82.9853 31.1202 81.6469 31.9017 80.2473 32.341C78.9396 32.7803 77.0853 33 74.6845 33H69.7806ZM73.3512 29.6439H74.9603C76.5643 29.6439 77.8975 29.4753 78.96 29.1382C80.0225 28.7806 80.9829 28.2136 81.841 27.4372C83.5983 25.8332 84.4769 23.744 84.4769 21.1694C84.4769 18.5745 83.6085 16.4699 81.8717 14.8557C80.3086 13.4152 78.0048 12.6949 74.9603 12.6949H73.3512V29.6439Z" fill="white"/>
</g>
<g filter="url(#filter1_d_55_24998)">
<path d="M9.61631 58.0881L1.89273 44.6484H5.99971L11.4093 54.1037L16.8342 44.6484H20.9412L13.1869 58.0881V68.3096H9.61631V58.0881ZM21.309 56.3717C21.309 53.0412 22.5298 50.1806 24.9715 47.79C27.403 45.3993 30.3249 44.204 33.7372 44.204C37.1086 44.204 39.9998 45.4095 42.4109 47.8206C44.8322 50.2317 46.0428 53.128 46.0428 56.5096C46.0428 59.9117 44.8271 62.7978 42.3956 65.168C39.9539 67.5484 37.0064 68.7387 33.5533 68.7387C30.4986 68.7387 27.7555 67.6813 25.324 65.5665C22.6473 63.2269 21.309 60.162 21.309 56.3717ZM24.9102 56.4177C24.9102 59.0331 25.7888 61.1836 27.5461 62.8693C29.2931 64.555 31.3108 65.3979 33.5993 65.3979C36.0819 65.3979 38.1762 64.5397 39.8823 62.8234C41.5885 61.0866 42.4416 58.9718 42.4416 56.479C42.4416 53.9556 41.5987 51.8408 39.913 50.1346C38.2375 48.4183 36.1636 47.5601 33.6912 47.5601C31.2291 47.5601 29.15 48.4183 27.4541 50.1346C25.7582 51.8305 24.9102 53.9249 24.9102 56.4177ZM54.1036 44.6484V58.9003C54.1036 60.9333 54.4356 62.4198 55.0997 63.3597C56.0906 64.7185 57.4852 65.3979 59.2833 65.3979C61.0916 65.3979 62.4912 64.7185 63.4822 63.3597C64.1463 62.4505 64.4783 60.964 64.4783 58.9003V44.6484H68.0489V59.8811C68.0489 62.3739 67.2725 64.4273 65.7196 66.0415C63.9726 67.8396 61.8271 68.7387 59.2833 68.7387C56.7394 68.7387 54.5991 67.8396 52.8623 66.0415C51.3094 64.4273 50.5329 62.3739 50.5329 59.8811V44.6484H54.1036ZM81.7491 58.226L89.0742 68.3096H84.7067L77.9486 58.6244H77.305V68.3096H73.7343V44.6484H77.9179C81.0442 44.6484 83.302 45.2359 84.6914 46.4108C86.2239 47.7184 86.9901 49.445 86.9901 51.5905C86.9901 53.2659 86.5099 54.7065 85.5496 55.912C84.5892 57.1175 83.3224 57.8889 81.7491 58.226ZM77.305 55.5136H78.439C81.8206 55.5136 83.5114 54.2212 83.5114 51.6364C83.5114 49.2151 81.8666 48.0045 78.5769 48.0045H77.305V55.5136Z" fill="white"/>
</g>
<g filter="url(#filter2_d_55_24998)">
<path d="M3.65505 89.7731C3.65505 86.4426 4.87591 83.582 7.31763 81.1913C9.74913 78.8007 12.671 77.6054 16.0833 77.6054C19.4547 77.6054 22.3459 78.8109 24.757 81.222C27.1783 83.633 28.3889 86.5294 28.3889 89.911C28.3889 93.3131 27.1732 96.1992 24.7417 98.5694C22.3 100.95 19.3525 102.14 15.8994 102.14C12.8447 102.14 10.1016 101.083 7.67009 98.9678C4.9934 96.6283 3.65505 93.5634 3.65505 89.7731ZM7.25633 89.8191C7.25633 92.4345 8.13494 94.585 9.89216 96.2707C11.6392 97.9564 13.6569 98.7993 15.9454 98.7993C18.4279 98.7993 20.5223 97.9411 22.2284 96.2247C23.9346 94.488 24.7876 92.3732 24.7876 89.8804C24.7876 87.3569 23.9448 85.2421 22.2591 83.536C20.5836 81.8196 18.5097 80.9615 16.0373 80.9615C13.5752 80.9615 11.4961 81.8196 9.80021 83.536C8.10429 85.2319 7.25633 87.3263 7.25633 89.8191ZM33.0323 78.0498L39.1927 93.8648L45.6291 76.9005L51.7895 93.8648L58.3331 78.0498H62.2103L51.6363 103.213L45.5524 86.4477L39.2081 103.228L29.1551 78.0498H33.0323ZM65.1526 101.711V76.4407L82.408 94.4931V78.0498H85.9787V103.151L68.7232 85.1451V101.711H65.1526Z" fill="white"/>
</g>
<g filter="url(#filter3_d_55_24998)">
<path d="M4.83505 134.156V110.495H8.39035C9.97389 110.495 11.2356 110.618 12.1755 110.863C13.1256 111.108 13.9276 111.522 14.5815 112.104C15.2455 112.707 15.7717 113.458 16.1599 114.357C16.5583 115.266 16.7576 116.186 16.7576 117.115C16.7576 118.811 16.1088 120.247 14.8113 121.422C16.068 121.851 17.0589 122.602 17.7843 123.674C18.5199 124.737 18.8877 125.973 18.8877 127.383C18.8877 129.232 18.2338 130.795 16.9261 132.072C16.1395 132.859 15.2558 133.405 14.275 133.712C13.2023 134.008 11.8588 134.156 10.2446 134.156H4.83505ZM8.40567 120.655H9.52437C10.8525 120.655 11.8231 120.364 12.436 119.782C13.0592 119.189 13.3708 118.321 13.3708 117.177C13.3708 116.063 13.0541 115.22 12.4207 114.648C11.7873 114.066 10.8678 113.775 9.66229 113.775H8.40567V120.655ZM8.40567 130.8H10.6124C12.2266 130.8 13.4117 130.483 14.1677 129.85C14.9646 129.166 15.363 128.297 15.363 127.245C15.363 126.223 14.9799 125.365 14.2137 124.67C13.4679 123.986 12.1347 123.644 10.214 123.644H8.40567V130.8ZM31.4232 124.073L38.7483 134.156H34.3808L27.6227 124.471H26.9791V134.156H23.4084V110.495H27.592C30.7183 110.495 32.9761 111.083 34.3655 112.257C35.898 113.565 36.6642 115.292 36.6642 117.437C36.6642 119.113 36.184 120.553 35.2237 121.759C34.2633 122.964 32.9965 123.736 31.4232 124.073ZM26.9791 121.36H28.1131C31.4947 121.36 33.1855 120.068 33.1855 117.483C33.1855 115.062 31.5407 113.851 28.251 113.851H26.9791V121.36ZM56.2183 128.41H46.0888L43.453 134.156H39.6065L51.3145 109.009L62.6087 134.156H58.7009L56.2183 128.41ZM54.7625 125.053L51.2532 117.008L47.5753 125.053H54.7625ZM65.5817 134.156V108.886L82.8371 126.938V110.495H86.4078V135.597L69.1523 117.59V134.156H65.5817ZM92.0932 134.156V110.495H97.0583C99.4388 110.495 101.319 110.73 102.698 111.2C104.179 111.66 105.523 112.441 106.728 113.545C109.17 115.772 110.391 118.699 110.391 122.326C110.391 125.963 109.119 128.905 106.575 131.153C105.298 132.276 103.96 133.058 102.56 133.497C101.252 133.937 99.3979 134.156 96.997 134.156H92.0932ZM95.6638 130.8H97.2729C98.8769 130.8 100.21 130.632 101.273 130.294C102.335 129.937 103.295 129.37 104.154 128.593C105.911 126.989 106.789 124.9 106.789 122.326C106.789 119.731 105.921 117.626 104.184 116.012C102.621 114.571 100.317 113.851 97.2729 113.851H95.6638V130.8Z" fill="white"/>
</g>
<defs>
<filter id="filter0_d_55_24998" x="3.81376" y="9.33887" width="84.2644" height="25.1111" filterUnits="userSpaceOnUse" color-interpolation-filters="sRGB">
<feFlood flood-opacity="0" result="BackgroundImageFix"/>
<feColorMatrix in="SourceAlpha" type="matrix" values="0 0 0 0 0 0 0 0 0 0 0 0 0 0 0 0 0 0 127 0" result="hardAlpha"/>
<feOffset dx="-1.02126" dy="1.02126"/>
<feComposite in2="hardAlpha" operator="out"/>
<feColorMatrix type="matrix" values="0 0 0 0 0.0125 0 0 0 0 0.0125 0 0 0 0 0.0125 0 0 0 1 0"/>
<feBlend mode="normal" in2="BackgroundImageFix" result="effect1_dropShadow_55_24998"/>
<feBlend mode="normal" in="SourceGraphic" in2="effect1_dropShadow_55_24998" result="shape"/>
</filter>
<filter id="filter1_d_55_24998" x="0.871438" y="44.2041" width="88.2028" height="25.5554" filterUnits="userSpaceOnUse" color-interpolation-filters="sRGB">
<feFlood flood-opacity="0" result="BackgroundImageFix"/>
<feColorMatrix in="SourceAlpha" type="matrix" values="0 0 0 0 0 0 0 0 0 0 0 0 0 0 0 0 0 0 127 0" result="hardAlpha"/>
<feOffset dx="-1.02126" dy="1.02126"/>
<feComposite in2="hardAlpha" operator="out"/>
<feColorMatrix type="matrix" values="0 0 0 0 0.0125 0 0 0 0 0.0125 0 0 0 0 0.0125 0 0 0 1 0"/>
<feBlend mode="normal" in2="BackgroundImageFix" result="effect1_dropShadow_55_24998"/>
<feBlend mode="normal" in="SourceGraphic" in2="effect1_dropShadow_55_24998" result="shape"/>
</filter>
<filter id="filter2_d_55_24998" x="2.63377" y="76.4404" width="83.3449" height="27.8093" filterUnits="userSpaceOnUse" color-interpolation-filters="sRGB">
<feFlood flood-opacity="0" result="BackgroundImageFix"/>
<feColorMatrix in="SourceAlpha" type="matrix" values="0 0 0 0 0 0 0 0 0 0 0 0 0 0 0 0 0 0 127 0" result="hardAlpha"/>
<feOffset dx="-1.02126" dy="1.02126"/>
<feComposite in2="hardAlpha" operator="out"/>
<feColorMatrix type="matrix" values="0 0 0 0 0.0125 0 0 0 0 0.0125 0 0 0 0 0.0125 0 0 0 1 0"/>
<feBlend mode="normal" in2="BackgroundImageFix" result="effect1_dropShadow_55_24998"/>
<feBlend mode="normal" in="SourceGraphic" in2="effect1_dropShadow_55_24998" result="shape"/>
</filter>
<filter id="filter3_d_55_24998" x="3.81376" y="108.886" width="106.577" height="27.7322" filterUnits="userSpaceOnUse" color-interpolation-filters="sRGB">
<feFlood flood-opacity="0" result="BackgroundImageFix"/>
<feColorMatrix in="SourceAlpha" type="matrix" values="0 0 0 0 0 0 0 0 0 0 0 0 0 0 0 0 0 0 127 0" result="hardAlpha"/>
<feOffset dx="-1.02126" dy="1.02126"/>
<feComposite in2="hardAlpha" operator="out"/>
<feColorMatrix type="matrix" values="0 0 0 0 0.0125 0 0 0 0 0.0125 0 0 0 0 0.0125 0 0 0 1 0"/>
<feBlend mode="normal" in2="BackgroundImageFix" result="effect1_dropShadow_55_24998"/>
<feBlend mode="normal" in="SourceGraphic" in2="effect1_dropShadow_55_24998" result="shape"/>
</filter>
</defs>
</svg>
